<svg xmlns="http://www.w3.org/2000/svg" viewBox="0 0 932 500" width="932" height="500"><defs><linearGradient id="g" x1="40" y1="252" x2="262" y2="60" gradientUnits="userSpaceOnUse"><stop offset="0" stop-color="#8a6c2c"></stop><stop offset="0.28" stop-color="#c9a24b"></stop><stop offset="0.5" stop-color="#efe0a6"></stop><stop offset="0.72" stop-color="#b6913e"></stop><stop offset="1" stop-color="#7e6228"></stop></linearGradient></defs><g transform="translate(70 70) scale(1.2000)"><path d="M150 36 L262 252 L38 252 Z" fill="none" stroke="url(#g)" stroke-width="6.5" stroke-linejoin="round"></path><path transform="translate(24.4 49.6) scale(0.78)" d="M150 240 L150 150 C150 158 158 161 170 154 C190 144 195 119 184 101 C173 83 148 83 136 105" fill="none" stroke="#22324f" stroke-width="7.5" stroke-linecap="round" stroke-linejoin="round"></path></g><path d="M521.32 195.54L513.68 195.54L513.68 292.84L521.32 292.84L521.32 195.54ZM517.98 195.54L517.98 202.77L536.47 202.77Q547.17 202.77 553.85 208.26Q560.52 213.75 560.52 224.31L560.52 224.31Q560.52 234.74 553.85 240.30Q547.17 245.86 536.47 245.86L536.47 245.86L517.98 245.86L517.98 253.09L536.47 253.09Q545.65 253.09 552.80 249.68Q559.96 246.27 564.13 239.74Q568.30 233.21 568.30 224.31L568.30 224.31Q568.30 215.28 564.13 208.88Q559.96 202.49 552.80 199.01Q545.65 195.54 536.47 195.54L536.47 195.54L517.98 195.54Z" fill="#22324f"></path><path d="M609.59 236.27L609.59 243.49L675.19 243.49L675.19 236.27L609.59 236.27ZM677.83 195.54L670.05 195.54L670.05 292.84L677.83 292.84L677.83 195.54ZM613.20 195.54L605.55 195.54L605.55 292.84L613.20 292.84L613.20 195.54Z" fill="#22324f"></path><path transform="translate(708.97 191.37) scale(1.0286)" d="M50 18 L86 82 L14 82 Z" fill="none" stroke="#b6913e" stroke-width="6.5" stroke-linejoin="round"></path><path d="M850.33 195.54L842.69 195.54L842.69 292.84L850.33 292.84L850.33 195.54Z" fill="#22324f"></path><path d="M523.07 335.43L523.07 338.99L531.08 338.99L531.08 366.57L534.86 366.57L534.86 338.99L542.87 338.99L542.87 335.43L523.07 335.43Z" fill="#b6913e"></path><path d="M578.89 351.22L574.67 351.22L585.34 366.57L590.01 366.57L578.89 351.22ZM572.89 335.43L569.11 335.43L569.11 366.57L572.89 366.57L572.89 335.43ZM571.20 335.43L571.20 338.77L577.56 338.77Q579.56 338.77 581.10 339.48Q582.63 340.19 583.50 341.52Q584.37 342.86 584.37 344.77L584.37 344.77Q584.37 346.68 583.50 348.02Q582.63 349.35 581.10 350.06Q579.56 350.78 577.56 350.78L577.56 350.78L571.20 350.78L571.20 354.11L577.56 354.11Q580.59 354.11 582.96 352.98Q585.34 351.84 586.75 349.73Q588.15 347.62 588.15 344.77L588.15 344.77Q588.15 341.88 586.75 339.79Q585.34 337.70 582.96 336.56Q580.59 335.43 577.56 335.43L577.56 335.43L571.20 335.43Z" fill="#b6913e"></path><path d="M620.57 353.67L619.24 357.22L635.70 357.22L634.36 353.67L620.57 353.67ZM622.13 354.82L627.38 342.46L632.72 355.00L633.07 355.89L637.61 366.57L641.83 366.57L627.38 333.87L612.92 366.57L617.15 366.57L621.77 355.62L622.13 354.82Z" fill="#b6913e"></path><path d="M671.64 335.43L667.85 335.43L667.85 366.57L671.64 366.57L671.64 335.43ZM669.95 366.57L677.20 366.57Q681.73 366.57 685.25 364.61Q688.76 362.65 690.76 359.16Q692.76 355.67 692.76 351.00L692.76 351.00Q692.76 346.33 690.76 342.84Q688.76 339.34 685.25 337.39Q681.73 335.43 677.20 335.43L677.20 335.43L669.95 335.43L669.95 339.21L677.20 339.21Q679.82 339.21 682.00 340.03Q684.18 340.86 685.74 342.39Q687.29 343.93 688.14 346.10Q688.98 348.28 688.98 351.00L688.98 351.00Q688.98 353.71 688.14 355.89Q687.29 358.07 685.74 359.60Q684.18 361.14 682.00 361.96Q679.82 362.78 677.20 362.78L677.20 362.78L669.95 362.78L669.95 366.57Z" fill="#b6913e"></path><path d="M724.12 335.43L720.34 335.43L720.34 366.57L724.12 366.57L724.12 335.43Z" fill="#b6913e"></path><path d="M780.83 335.43L777.05 335.43L777.05 358.60L753.48 333.87L753.48 366.57L757.26 366.57L757.26 343.39L780.83 368.12L780.83 335.43Z" fill="#b6913e"></path><path d="M824.65 350.78L824.65 354.33L835.01 354.33Q834.61 356.16 833.74 357.76Q832.88 359.36 831.54 360.61Q830.21 361.85 828.36 362.54Q826.51 363.23 824.20 363.23L824.20 363.23Q820.91 363.23 818.24 361.67Q815.57 360.12 813.99 357.36Q812.41 354.60 812.41 351.00L812.41 351.00Q812.41 347.35 813.99 344.61Q815.57 341.88 818.24 340.32Q820.91 338.77 824.20 338.77L824.20 338.77Q827.76 338.77 830.38 340.17Q833.01 341.57 834.48 344.06L834.48 344.06L837.15 341.61Q835.81 339.43 833.88 337.96Q831.94 336.50 829.52 335.74Q827.09 334.98 824.20 334.98L824.20 334.98Q820.82 334.98 817.93 336.16Q815.04 337.34 812.90 339.50Q810.77 341.66 809.59 344.59Q808.41 347.53 808.41 351.00L808.41 351.00Q808.41 354.47 809.59 357.40Q810.77 360.34 812.90 362.50Q815.04 364.65 817.93 365.83Q820.82 367.01 824.20 367.01L824.20 367.01Q827.76 367.01 830.54 365.70Q833.32 364.39 835.23 362.12Q837.15 359.85 838.12 356.94Q839.10 354.02 839.10 350.78L839.10 350.78L824.65 350.78Z" fill="#b6913e"></path></svg>