<svg xmlns="http://www.w3.org/2000/svg" viewBox="0 0 488 280" width="488" height="280"><defs><linearGradient id="g" x1="40" y1="252" x2="262" y2="60" gradientUnits="userSpaceOnUse"><stop offset="0" stop-color="#8a6c2c"></stop><stop offset="0.28" stop-color="#c9a24b"></stop><stop offset="0.5" stop-color="#efe0a6"></stop><stop offset="0.72" stop-color="#b6913e"></stop><stop offset="1" stop-color="#7e6228"></stop></linearGradient></defs><path d="M70.85 49L62.60 49L62.60 154L70.85 154L70.85 49ZM67.25 49L67.25 56.80L87.20 56.80Q98.75 56.80 105.95 62.73Q113.15 68.65 113.15 80.05L113.15 80.05Q113.15 91.30 105.95 97.30Q98.75 103.30 87.20 103.30L87.20 103.30L67.25 103.30L67.25 111.10L87.20 111.10Q97.10 111.10 104.82 107.43Q112.55 103.75 117.05 96.70Q121.55 89.65 121.55 80.05L121.55 80.05Q121.55 70.30 117.05 63.40Q112.55 56.50 104.82 52.75Q97.10 49 87.20 49L87.20 49L67.25 49Z" fill="#22324f"></path><path d="M166.10 92.95L166.10 100.75L236.90 100.75L236.90 92.95L166.10 92.95ZM239.75 49L231.35 49L231.35 154L239.75 154L239.75 49ZM170.00 49L161.75 49L161.75 154L170.00 154L170.00 49Z" fill="#22324f"></path><path transform="translate(273.35 44.50) scale(1.1100)" d="M50 18 L86 82 L14 82 Z" fill="none" stroke="#b6913e" stroke-width="6.5" stroke-linejoin="round"></path><path d="M425.90 49L417.65 49L417.65 154L425.90 154L425.90 49Z" fill="#22324f"></path><path d="M72.74 199.96L72.74 203.80L81.38 203.80L81.38 233.56L85.46 233.56L85.46 203.80L94.10 203.80L94.10 199.96L72.74 199.96Z" fill="#b6913e"></path><path d="M132.98 217L128.42 217L139.94 233.56L144.98 233.56L132.98 217ZM126.50 199.96L122.42 199.96L122.42 233.56L126.50 233.56L126.50 199.96ZM124.68 199.96L124.68 203.56L131.54 203.56Q133.70 203.56 135.36 204.33Q137.01 205.10 137.95 206.54Q138.88 207.98 138.88 210.04L138.88 210.04Q138.88 212.10 137.95 213.54Q137.01 214.98 135.36 215.75Q133.70 216.52 131.54 216.52L131.54 216.52L124.68 216.52L124.68 220.12L131.54 220.12Q134.80 220.12 137.37 218.90Q139.94 217.67 141.45 215.39Q142.96 213.11 142.96 210.04L142.96 210.04Q142.96 206.92 141.45 204.66Q139.94 202.41 137.37 201.18Q134.80 199.96 131.54 199.96L131.54 199.96L124.68 199.96Z" fill="#b6913e"></path><path d="M177.96 219.64L176.52 223.48L194.28 223.48L192.84 219.64L177.96 219.64ZM179.64 220.89L185.30 207.54L191.06 221.08L191.44 222.04L196.34 233.56L200.90 233.56L185.30 198.28L169.70 233.56L174.26 233.56L179.25 221.75L179.64 220.89Z" fill="#b6913e"></path><path d="M233.06 199.96L228.98 199.96L228.98 233.56L233.06 233.56L233.06 199.96ZM231.24 233.56L239.06 233.56Q243.96 233.56 247.75 231.45Q251.54 229.34 253.70 225.57Q255.86 221.80 255.86 216.76L255.86 216.76Q255.86 211.72 253.70 207.95Q251.54 204.18 247.75 202.07Q243.96 199.96 239.06 199.96L239.06 199.96L231.24 199.96L231.24 204.04L239.06 204.04Q241.89 204.04 244.24 204.93Q246.60 205.82 248.28 207.47Q249.96 209.13 250.87 211.48Q251.78 213.83 251.78 216.76L251.78 216.76Q251.78 219.69 250.87 222.04Q249.96 224.39 248.28 226.05Q246.60 227.70 244.24 228.59Q241.89 229.48 239.06 229.48L239.06 229.48L231.24 229.48L231.24 233.56Z" fill="#b6913e"></path><path d="M289.70 199.96L285.62 199.96L285.62 233.56L289.70 233.56L289.70 199.96Z" fill="#b6913e"></path><path d="M350.90 199.96L346.82 199.96L346.82 224.97L321.38 198.28L321.38 233.56L325.46 233.56L325.46 208.55L350.90 235.24L350.90 199.96Z" fill="#b6913e"></path><path d="M398.18 216.52L398.18 220.36L409.36 220.36Q408.93 222.33 408.00 224.06Q407.06 225.78 405.62 227.13Q404.18 228.47 402.19 229.22Q400.20 229.96 397.70 229.96L397.70 229.96Q394.15 229.96 391.27 228.28Q388.39 226.60 386.68 223.62Q384.98 220.65 384.98 216.76L384.98 216.76Q384.98 212.82 386.68 209.87Q388.39 206.92 391.27 205.24Q394.15 203.56 397.70 203.56L397.70 203.56Q401.54 203.56 404.37 205.07Q407.20 206.58 408.79 209.27L408.79 209.27L411.67 206.63Q410.23 204.28 408.14 202.70Q406.05 201.11 403.44 200.30Q400.82 199.48 397.70 199.48L397.70 199.48Q394.05 199.48 390.93 200.75Q387.81 202.02 385.51 204.35Q383.20 206.68 381.93 209.85Q380.66 213.02 380.66 216.76L380.66 216.76Q380.66 220.50 381.93 223.67Q383.20 226.84 385.51 229.17Q387.81 231.50 390.93 232.77Q394.05 234.04 397.70 234.04L397.70 234.04Q401.54 234.04 404.54 232.62Q407.54 231.21 409.60 228.76Q411.67 226.31 412.72 223.17Q413.78 220.02 413.78 216.52L413.78 216.52L398.18 216.52Z" fill="#b6913e"></path></svg>