<svg xmlns="http://www.w3.org/2000/svg" viewBox="0 0 740 866" width="740" height="866"><defs><linearGradient id="g" x1="40" y1="252" x2="262" y2="60" gradientUnits="userSpaceOnUse"><stop offset="0" stop-color="#8a6c2c"></stop><stop offset="0.28" stop-color="#c9a24b"></stop><stop offset="0.5" stop-color="#efe0a6"></stop><stop offset="0.72" stop-color="#b6913e"></stop><stop offset="1" stop-color="#7e6228"></stop></linearGradient></defs><g transform="translate(70 70) scale(2.0000)"><path d="M150 36 L262 252 L38 252 Z" fill="none" stroke="#22324f" stroke-width="6.5" stroke-linejoin="round"></path><path transform="translate(24.4 49.6) scale(0.78)" d="M150 240 L150 150 C150 158 158 161 170 154 C190 144 195 119 184 101 C173 83 148 83 136 105" fill="none" stroke="#22324f" stroke-width="7.5" stroke-linecap="round" stroke-linejoin="round"></path></g><path d="M223.31 627.54L216.33 627.54L216.33 716.44L223.31 716.44L223.31 627.54ZM220.27 627.54L220.27 634.14L237.16 634.14Q246.94 634.14 253.03 639.16Q259.13 644.18 259.13 653.83L259.13 653.83Q259.13 663.35 253.03 668.43Q246.94 673.51 237.16 673.51L237.16 673.51L220.27 673.51L220.27 680.12L237.16 680.12Q245.54 680.12 252.08 677.01Q258.62 673.90 262.43 667.93Q266.24 661.96 266.24 653.83L266.24 653.83Q266.24 645.57 262.43 639.73Q258.62 633.89 252.08 630.72Q245.54 627.54 237.16 627.54L237.16 627.54L220.27 627.54Z" fill="#22324f"></path><path d="M303.96 664.75L303.96 671.36L363.90 671.36L363.90 664.75L303.96 664.75ZM366.32 627.54L359.20 627.54L359.20 716.44L366.32 716.44L366.32 627.54ZM307.26 627.54L300.28 627.54L300.28 716.44L307.26 716.44L307.26 627.54Z" fill="#22324f"></path><path transform="translate(394.76 623.73) scale(0.9398)" d="M50 18 L86 82 L14 82 Z" fill="none" stroke="#22324f" stroke-width="6.5" stroke-linejoin="round"></path><path d="M523.92 627.54L516.94 627.54L516.94 716.44L523.92 716.44L523.92 627.54Z" fill="#22324f"></path><path d="M224.92 755.35L224.92 758.60L232.23 758.60L232.23 783.80L235.68 783.80L235.68 758.60L243 758.60L243 755.35L224.92 755.35Z" fill="#22324f"></path><path d="M275.92 769.78L272.06 769.78L281.81 783.80L286.08 783.80L275.92 769.78ZM270.43 755.35L266.98 755.35L266.98 783.80L270.43 783.80L270.43 755.35ZM268.89 755.35L268.89 758.40L274.70 758.40Q276.53 758.40 277.93 759.05Q279.33 759.70 280.12 760.92Q280.92 762.14 280.92 763.89L280.92 763.89Q280.92 765.63 280.12 766.85Q279.33 768.07 277.93 768.72Q276.53 769.37 274.70 769.37L274.70 769.37L268.89 769.37L268.89 772.42L274.70 772.42Q277.46 772.42 279.64 771.39Q281.81 770.35 283.09 768.42Q284.37 766.49 284.37 763.89L284.37 763.89Q284.37 761.25 283.09 759.34Q281.81 757.43 279.64 756.39Q277.46 755.35 274.70 755.35L274.70 755.35L268.89 755.35Z" fill="#22324f"></path><path d="M314.00 772.02L312.78 775.27L327.82 775.27L326.60 772.02L314.00 772.02ZM315.42 773.07L320.22 761.77L325.09 773.23L325.42 774.05L329.56 783.80L333.42 783.80L320.22 753.93L307.01 783.80L310.87 783.80L315.10 773.80L315.42 773.07Z" fill="#22324f"></path><path d="M360.65 755.35L357.20 755.35L357.20 783.80L360.65 783.80L360.65 755.35ZM359.11 783.80L365.73 783.80Q369.88 783.80 373.09 782.01Q376.30 780.22 378.13 777.03Q379.96 773.84 379.96 769.58L379.96 769.58Q379.96 765.31 378.13 762.12Q376.30 758.93 373.09 757.14Q369.88 755.35 365.73 755.35L365.73 755.35L359.11 755.35L359.11 758.81L365.73 758.81Q368.13 758.81 370.12 759.56Q372.11 760.31 373.54 761.71Q374.96 763.12 375.73 765.11Q376.50 767.10 376.50 769.58L376.50 769.58Q376.50 772.06 375.73 774.05Q374.96 776.04 373.54 777.44Q372.11 778.84 370.12 779.59Q368.13 780.35 365.73 780.35L365.73 780.35L359.11 780.35L359.11 783.80Z" fill="#22324f"></path><path d="M408.61 755.35L405.15 755.35L405.15 783.80L408.61 783.80L408.61 755.35Z" fill="#22324f"></path><path d="M460.42 755.35L456.97 755.35L456.97 776.53L435.43 753.93L435.43 783.80L438.88 783.80L438.88 762.63L460.42 785.22L460.42 755.35Z" fill="#22324f"></path><path d="M500.45 769.37L500.45 772.62L509.92 772.62Q509.56 774.29 508.77 775.75Q507.97 777.22 506.75 778.36Q505.53 779.49 503.85 780.12Q502.16 780.75 500.05 780.75L500.05 780.75Q497.04 780.75 494.60 779.33Q492.16 777.91 490.72 775.39Q489.28 772.87 489.28 769.58L489.28 769.58Q489.28 766.24 490.72 763.74Q492.16 761.25 494.60 759.82Q497.04 758.40 500.05 758.40L500.05 758.40Q503.30 758.40 505.70 759.68Q508.09 760.96 509.44 763.24L509.44 763.24L511.87 761.00Q510.66 759.01 508.89 757.67Q507.12 756.33 504.90 755.64Q502.69 754.95 500.05 754.95L500.05 754.95Q496.96 754.95 494.32 756.02Q491.68 757.10 489.73 759.07Q487.77 761.04 486.70 763.72Q485.62 766.41 485.62 769.58L485.62 769.58Q485.62 772.75 486.70 775.43Q487.77 778.11 489.73 780.08Q491.68 782.05 494.32 783.13Q496.96 784.21 500.05 784.21L500.05 784.21Q503.30 784.21 505.84 783.01Q508.38 781.81 510.13 779.74Q511.87 777.66 512.77 775.00Q513.66 772.34 513.66 769.37L513.66 769.37L500.45 769.37Z" fill="#22324f"></path></svg>